# xmcd
#
# Track frame offsets:
#	150
#	14740
#	30023
#	43249
#	59746
#	76149
#	90509
#	104830
#	126364
#	138121
#
# Disc length: 2021 seconds
#
# Revision: 0
# Processed by: cddbd v1.5.2PL0 Copyright (c) Steve Scherf et al.
# Submitted via: audiograbber 1.83.01
#
DISCID=8307e30a
DTITLE=Kris Kristofferson - The Complete Monument and Columbia Albums Collection 
DTITLE=(CD 03) - Border Lord [remastered 2016]
DYEAR=1972
DGENRE=Singer/Songwriter
TTITLE0=Josie
TTITLE1=Burden Of Freedom
TTITLE2=Stagger Mountain Tragedy
TTITLE3=Border Lord
TTITLE4=Somebody Nobody Knows
TTITLE5=Little Girl Lost
TTITLE6=Smokey Put The Sweat On Me
TTITLE7=When She's Wrong
TTITLE8=Gettin' By, High And Strange
TTITLE9=Kiss The World Goodbye
EXTD=
EXTT0=
EXTT1=
EXTT2=
EXTT3=
EXTT4=
EXTT5=
EXTT6=
EXTT7=
EXTT8=
EXTT9=
PLAYORDER=
